<?xml version="1.0" encoding="UTF-8"?>
<svg width="914px" height="375px" viewBox="0 0 914 375" version="1.1" xmlns="http://www.w3.org/2000/svg" xmlns:xlink="http://www.w3.org/1999/xlink">
    <!-- Generator: Sketch 43.2 (39069) - http://www.bohemiancoding.com/sketch -->
    <title>Artboard</title>
    <desc>Created with Sketch.</desc>
    <defs></defs>
    <g id="Page-1" stroke="none" stroke-width="1" fill="none" fill-rule="evenodd">
        <g id="Artboard" fill="#F2EDE5">
            <path d="M322.917053,424.355301 C320.257878,418.03932 316.444761,412.191285 312.949373,406.25984 C308.701345,399.058441 304.202339,391.990924 299.920873,384.806207 C299.435868,383.970792 299.335511,382.617386 299.619843,381.681709 C301.108337,376.986427 303.382866,372.475501 304.269087,367.680129 C306.794466,354.129386 308.517114,340.46187 307.948493,326.593745 C307.312952,310.988147 305.724143,295.532686 301.175214,280.543459 C294.869899,259.757953 284.517744,241.412266 269.315115,225.604776 C257.791979,213.624687 247.021524,200.87638 236.401348,188.060919 C223.322755,172.288076 209.759072,157.250515 191.227604,147.525888 C181.527515,142.429817 171.927613,137.267018 161.173855,134.593654 C154.383879,132.906099 147.593475,131.118282 141.054392,128.695574 C126.938828,123.499411 113.040762,117.701421 98.9256261,112.471467 C84.9774673,107.291986 71.0460062,102.04535 55.9611182,100.825441 C50.8434823,100.407712 45.6757532,99.0543488 40.8085831,97.3500691 C34.118793,95.044304 27.8639998,91.3685793 21.0902929,89.4467519 C13.7313097,87.3749168 7.91151347,83.4986257 2.79387756,78.1352175 C1.85730695,77.1494095 1.08797038,76.4977932 -0.0492725302,77.968143 C-0.400523973,78.4192784 -1.3537923,78.4025538 -1.97259254,78.5863529 C-0.316864134,83.9664429 1.22176618,89.2798057 2.92754492,94.5264414 C5.20207355,101.543913 7.10865303,108.745312 10.1191228,115.445402 C14.0661204,124.234137 18.5818678,132.722172 20.6720794,142.262443 C22.444863,150.332578 24.869928,158.269258 26.4255129,166.372757 C29.3188418,181.427 32.6803061,196.347788 40.4070672,209.749679 C48.2507123,223.350468 55.0077214,237.485929 60.9782253,251.938772 C65.0589758,261.813535 69.9928513,271.170306 76.7995254,279.173714 C91.7178643,296.71782 107.321666,313.693463 122.641178,330.887252 C134.61601,344.320795 149.417036,354.078784 165.154848,362.349529 C178.066036,369.116346 191.278639,375.348918 204.607698,381.280362 C212.769028,384.906127 221.181679,388.097652 230.363283,388.632325 C240.297567,389.200404 250.181759,390.336604 260.099346,391.055076 C266.655126,391.522936 273.228032,392.224683 279.58344,389.300666 C282.393152,387.99739 285.621163,387.496124 288.698252,386.894639 C293.280705,386.009092 295.354647,387.061713 297.712878,391.055076 C302.546225,399.175257 307.446362,407.262501 312.212918,415.416045 C317.012869,423.620062 321.260939,432.007579 321.377823,441.882332 C321.4447,447.747049 320.52487,453.210553 317.297073,458.223216 C316.812068,458.958412 316.561174,460.528981 316.996,461.013522 C317.648239,461.731994 319.170171,462.316798 319.989687,462.032737 C321.14367,461.631732 322.331135,460.545662 322.899756,459.442911 C328.970874,447.763522 327.799893,435.900637 322.916496,424.35513 L322.917053,424.355301 Z M123.747713,126.122504 C137.230664,132.147752 151.651784,135.318463 165.603819,139.908539 C170.71229,141.577509 175.67026,144.58193 179.857286,147.986354 C187.913612,154.579006 195.802714,161.488686 202.971039,169.015761 C213.657066,180.264714 222.249365,193.132563 229.836607,206.668222 C232.432734,211.30786 235.363995,215.764202 237.909655,220.437594 C244.475117,232.504326 249.098211,245.388838 253.31911,258.407083 C255.680738,265.717108 258.142872,273.010898 259.918445,280.454656 C263.26828,294.507729 266.366851,308.660782 266.969714,323.16419 C267.220935,329.089032 266.584456,335.0472 266.35,340.989132 C265.981507,341.022501 265.62978,341.072576 265.278053,341.105988 C259.164524,334.597079 253.084439,328.037754 246.904021,321.578834 C243.302965,317.806923 239.450558,314.285472 235.933285,310.446524 C232.683956,306.891576 229.685977,303.102745 226.654082,299.347539 C226.252102,298.846831 226.118108,297.978976 226.151596,297.294674 C226.319077,293.990059 226.955556,290.652032 226.77131,287.380914 C225.984115,272.827517 223.069748,258.741117 217.274716,245.288774 C214.310096,238.412419 211.814646,231.336107 208.615527,224.593058 C203.104861,212.97666 195.500897,202.645892 187.66239,192.531747 C180.845664,183.752795 174.531038,174.456429 166.843033,166.495257 C156.47516,155.763718 145.035769,146.067007 134.014866,135.969525 C130.480785,132.731691 126.795945,129.627248 123.027407,126.306141 C123.345647,126.205991 123.596869,126.055766 123.747627,126.122547 L123.747713,126.122504 Z M60.2758468,105.108977 C64.4960137,105.859561 68.8835503,106.143133 72.9194564,107.460819 C85.7808523,111.630749 98.6589681,115.833901 111.218979,120.771324 C115.723897,122.539369 119.608896,126.192115 123.360136,129.461669 C138.365098,142.488645 154.056859,154.814911 167.037437,169.993551 C178.006493,182.820263 187.401314,196.76444 196.712536,210.792309 C206.609809,225.687419 212.404296,242.283704 218.081316,258.928242 C221.598094,269.219843 222.686554,280.028117 223.021379,290.886778 C223.038098,291.570664 223.021379,292.254508 222.954371,292.938394 C222.920888,293.20527 222.719908,293.455451 222.401717,294.105988 C220.97826,292.754911 219.621769,291.570664 218.349048,290.269632 C201.284119,272.806105 184.286498,255.275539 167.122108,237.910649 C162.081298,232.823348 159.067016,226.685194 156.287239,220.296817 C152.669972,212.007001 148.918517,203.767144 145.150556,195.54394 C140.411132,185.185726 133.662329,176.095281 126.846646,167.038142 C116.564389,153.377494 104.992134,140.950883 91.779193,130.058916 C84.125805,123.737152 76.539725,117.315469 68.7692983,111.14401 C66.1066035,109.042349 62.9580909,107.541181 60.0274075,105.773179 C60.1278978,105.556347 60.1948628,105.32282 60.2786334,105.105988 L60.2758468,105.108977 Z M32.6705817,98.7428749 C38.7951558,100.815904 44.9698505,102.738497 51.1278383,104.744504 C52.4330747,105.162474 53.821974,105.51355 54.9430919,106.249127 C69.1833584,115.343801 81.8339002,126.344291 94.3842007,137.628962 C107.687596,149.599266 119.08298,163.057243 129.223633,177.652377 C135.599238,186.830508 140.334999,196.911687 144.250408,207.393887 C146.091122,212.342246 148.751844,216.990159 151.027407,221.771604 C150.860039,221.888658 150.676006,222.005669 150.50868,222.105988 C145.856882,217.174321 141.154536,212.275608 136.569566,207.277176 C126.512447,196.32676 116.455757,185.376344 106.532722,174.309089 C98.5339777,165.381757 89.1297128,158.07563 80.0098935,150.402293 C64.3473996,137.211806 49.1030062,123.51972 33.7061089,110.01124 C27.8659804,104.89554 22.0592656,99.7464561 16.2529792,94.5802532 C15.6170893,94.0118468 15.1151116,93.3096523 14.0274075,92.1059883 C20.7542863,94.513402 26.6946561,96.7033995 32.6688682,98.7431745 L32.6705817,98.7428749 Z M23.009013,136.318514 C22.6420466,129.316 18.3218014,123.837675 15.9869492,117.589107 C12.9512143,109.480979 9.98243352,101.33897 6.97974867,93.2141163 C6.02898386,90.6509597 5.11161069,88.1046147 4.02740746,85.1059883 C7.4301087,88.908823 10.3491864,92.5944059 13.7015867,95.8443474 C20.2065498,102.109641 26.9455106,108.140774 33.6340851,114.238811 C48.4792702,127.741207 62.9405796,141.712782 78.3541057,154.54529 C92.0480908,165.936811 104.374812,178.484553 115.933783,191.987379 C124.05666,201.469162 133.097167,210.163978 141.720919,219.227189 C144.356338,221.991355 146.958537,224.80587 150.027407,228.105988 C147.175156,227.636895 144.923441,227.33536 142.68808,226.86631 C127.592672,223.750346 113.948646,217.133211 100.604803,209.594616 C84.5422327,200.531405 70.6479832,188.737609 57.4049132,176.089512 C51.2833987,170.259517 45.0619655,164.496853 39.4408984,158.180953 C33.8864438,151.949154 29.0493542,145.080447 23.9287347,138.446286 C23.4616788,137.859941 23.0447104,137.055819 23.0113615,136.318728 L23.009013,136.318514 Z M25.0288619,144.105988 C27.0340473,146.659875 28.7886005,148.579541 30.2087637,150.716113 C36.4080482,160.080277 44.6961477,167.524946 52.700206,175.203356 C60.0189721,182.197209 67.5554747,188.957748 75.1749652,195.634106 C84.3819208,203.696244 94.6253701,210.256372 105.336375,216.148609 C113.87515,220.855903 122.246665,225.896502 131.904921,228.100161 C139.641621,229.869499 147.428371,231.388473 155.181754,233.107857 C156.033963,233.308182 156.902856,233.975818 157.537842,234.643539 C163.921068,241.320324 170.220452,248.113766 176.637045,254.773887 C186.12847,264.605533 195.719565,274.353426 205.244356,284.168407 C209.221318,288.257933 213.114522,292.430956 217.024793,296.587014 C217.308835,296.904167 217.509375,297.304774 218.027407,298.105988 C214.902655,297.254693 212.329473,296.436813 209.705942,295.835881 C202.320015,294.166706 194.917833,292.647732 187.531907,290.9786 C185.710535,290.577993 183.905847,290.04385 182.201429,289.309425 C176.236136,286.755539 170.287099,284.118411 164.355172,281.464363 C144.520627,272.60101 126.39033,260.899864 108.244204,249.032065 C91.53454,238.115467 76.127872,225.746856 61.4886286,212.326624 C53.5179366,205.03237 45.9818618,197.270634 38.3452604,189.625554 C34.2012107,185.485948 31.6779924,180.645118 30.7925025,174.636225 C29.2718983,164.637926 27.0662158,154.772949 25.0274075,144.106757 L25.0288619,144.105988 Z M66.626345,254.049629 C60.5778026,239.899354 53.4908598,226.267612 45.4487261,213.121006 C41.1763586,206.129579 37.1887041,198.98743 35.0274075,190.105988 C38.3112573,193.401011 40.9918828,196.261167 43.857027,198.937332 C54.6467825,209.006563 65.4704223,219.058666 76.343816,229.0611 C91.4896202,242.977157 108.529079,254.417869 125.553096,265.791356 C139.157813,274.873617 153.549587,282.785217 168.894836,288.756276 C170.452994,289.358391 171.977654,290.1111 173.435317,290.930649 C181.360358,295.430031 189.988817,297.687858 198.93553,299.059339 C202.537719,299.611314 206.123267,300.380679 209.624919,301.367521 C213.796792,302.555053 217.834758,303.976803 222.324628,303.675702 C223.581217,303.592077 225.206414,304.846535 226.194889,305.917001 C234.672799,314.965864 243.066642,324.098223 251.443758,333.247281 C254.694109,336.793221 257.844009,340.406129 261.027407,344.002038 C260.960368,344.303139 260.893372,344.604154 260.826333,344.905254 C256.067963,344.97218 251.292866,345.089246 246.518197,345.105988 C245.345375,345.105988 244.155826,344.637638 242.999774,344.687821 C234.036334,345.206312 225.508241,342.781065 217.214763,340.17174 C203.10736,335.756282 189.000385,331.106178 175.429123,325.302111 C158.875624,318.243887 142.48983,310.583205 127.292127,300.748192 C116.301211,293.639442 105.410661,286.363699 94.5874501,279.004459 C87.835489,274.421581 81.2340767,269.587785 74.649821,264.770688 C70.9135958,262.04434 68.4507298,258.347892 66.6244149,254.049329 L66.626345,254.049629 Z M290.015863,381.339253 C284.073316,383.185798 278.247433,385.149834 272.304886,386.74451 C270.18491,387.315246 267.797764,387.080265 265.561083,386.912366 C252.523889,385.938749 239.42003,385.468701 226.499927,383.622198 C219.221952,382.581413 212.043975,379.744491 205.199747,376.806967 C194.349236,372.157191 183.665814,367.054041 173.182813,361.598074 C158.309352,353.876094 143.820068,345.415823 131.851216,333.413212 C124.422819,325.943059 117.478595,317.986441 110.367709,310.180662 C101.87097,300.847161 93.3075658,291.564412 85.0279136,282.02932 C81.0550053,277.463343 77.6828472,272.393755 74.0274075,267.542431 C74.1943253,267.391335 74.3779519,267.257042 74.5448697,267.105988 C76.8651808,268.868606 79.1353225,270.715108 81.5224264,272.393927 C94.2425362,281.442038 106.845556,290.691354 119.782325,299.38665 C128.078644,304.976695 136.809136,309.978857 145.555868,314.847413 C152.349669,318.607629 159.377652,321.94799 166.488538,325.087234 C174.751524,328.746719 183.264929,331.818666 191.527915,335.444803 C204.047604,340.950619 217.201461,344.391969 230.539072,346.691932 C240.404572,348.387382 250.603821,349.444926 260.71974,347.380202 C261.571081,347.212303 262.82305,347.548059 263.457346,348.135598 C264.943025,349.461729 266.044742,351.190784 267.497004,352.567066 C276.277495,360.926779 282.203376,371.586455 289.84886,380.852487 C290.015778,381.104271 290.049153,381.423224 290.015778,381.339296 L290.015863,381.339253 Z M296.440876,375.651657 C296.273647,376.352882 295.772087,377.004057 295.203628,378.105988 C290.471817,371.811373 286.074721,365.767654 281.443496,359.907298 C278.350334,355.98371 274.956356,352.294092 271.595508,348.587505 C270.191074,347.051443 269.890087,345.648992 270.391689,343.5619 C272.431482,335.263967 272.448218,326.782244 271.562079,318.367626 C268.502388,289.232966 260.042227,261.601969 248.739812,234.653135 C243.824378,222.932423 237.119802,212.29693 230.766206,201.428066 C219.614027,182.361285 206.221568,165.080692 188.53217,151.458388 C187.99714,151.041012 187.529009,150.556788 187.027407,150.105988 C201.840908,157.56917 213.912484,168.254671 224.145266,181.077272 C238.206727,198.725018 252.786099,215.888498 268.484326,232.1155 C280.974081,245.021448 289.450679,260.448747 294.901571,277.430573 C303.261318,303.44293 305.083846,330.054529 300.770215,357.037557 C299.800483,363.315502 297.944569,369.459238 296.439891,375.653837 L296.440876,375.651657 Z" id="Page-1" transform="translate(162.527407, 269.605988) rotate(4.000000) translate(-162.527407, -269.605988) "></path>
            <path d="M808.455216,456.304402 L874.339122,452.866826 C892.765831,451.911946 907.749537,437.333874 909.237624,418.978874 C914.23221,356.931812 903.733061,340.803487 903.286363,340.146185 C902.925033,339.615673 902.24492,339.424729 901.671068,339.679339 L795.976068,385.386762 C794.700883,385.93846 793.255616,385.874794 792.044144,385.195764 C790.832672,384.516734 790.003805,383.328431 789.812503,381.94913 C789.536214,380.039372 790.535109,378.172039 792.256666,377.323251 L885.111132,332.18893 C895.143071,327.308386 900.732512,316.634793 899.01101,305.622009 C895.46169,283.022798 889.425769,246.291068 889.362111,245.910811 C889.277069,245.443964 888.979561,245.062023 888.554463,244.892266 C888.129365,244.722508 887.61928,244.786174 887.258004,245.062023 L805.600918,306.745125 C804.665735,307.466581 803.454318,307.721245 802.28534,307.509007 C801.116416,307.275584 800.117466,306.554128 799.522394,305.556768 C798.480951,303.795527 798.906049,301.503827 800.50007,300.230618 L872.080603,243.023684 C881.665843,235.363137 885.576765,222.843993 882.069558,211.109265 C874.077959,184.414687 859.923447,146.514482 859.774366,146.134225 C859.625285,145.753968 859.328049,145.455195 858.924225,145.327863 C858.541675,145.200531 858.116577,145.264197 857.776521,145.49762 L801.158474,184.096412 C800.095811,184.817868 798.841846,185.072532 797.587881,184.775442 C796.333916,184.499593 795.292473,183.735657 794.654907,182.63226 C793.46471,180.61641 793.996068,178.048806 795.866379,176.669289 L834.207885,148.25595 C839.542528,144.3091 842.985695,138.239983 843.623369,131.640896 C844.282208,125.041809 842.093115,118.420993 837.629669,113.519482 C817.779076,91.6422155 784.602076,65.1171236 784.262019,64.841709 C784.240745,64.8204689 784.240745,64.841709 784.219471,64.8204689 C784.176978,64.7780431 784.155758,64.7143772 784.11321,64.6719514 C783.709387,64.3961022 783.178028,64.3536764 782.73171,64.5870998 C782.349161,64.7780431 744.262887,84.4272753 718.463753,103.376563 C705.435509,112.946543 700.674718,130.071141 706.901832,145.052177 C715.020749,164.638123 725.966216,190.420084 731.917476,201.96577 C733.150168,204.363616 732.640083,207.31316 730.684785,209.159145 C729.345833,210.411113 727.560509,211.026478 725.732692,210.771868 C723.904875,210.538445 722.310853,209.5199 721.333232,207.970842 C696.530327,168.438791 681.865458,140.638209 683.055384,135.439554 C683.204193,134.824189 682.885356,134.166345 682.290284,133.932976 C681.695158,133.678312 681.015045,133.890496 680.653769,134.421008 C680.398754,134.824189 654.703378,174.01716 640.952037,197.972801 C634.85224,208.603698 635.234735,221.547643 641.950933,231.77601 C656.381842,253.759748 683.352947,293.225526 701.991308,310.630427 C703.500288,312.030914 703.755358,314.301428 702.607653,315.999003 C701.906266,317.059974 700.758616,317.717818 699.483377,317.845096 C698.208138,317.951188 696.975447,317.484341 696.104086,316.571887 C683.18194,303.054841 640.122626,257.306133 628.941568,235.892237 C628.707773,235.44663 628.240181,235.213207 627.730097,235.170781 C627.220012,235.192021 626.773694,235.489056 626.561173,235.955903 C626.412418,236.295418 610.578517,271.201915 600.568342,294.352499 C596.423897,303.922478 597.869164,314.935805 604.330238,323.105353 C617.358482,339.635663 645.583171,369.661292 688.005899,384.984015 C691.130175,386.108652 692.957993,389.31286 692.320373,392.580462 C691.937823,394.575126 690.705077,396.272702 688.919808,397.227581 C687.134539,398.203701 685.030432,398.309792 683.160067,397.545856 C658.591121,387.59399 600.164518,360.559897 588.265262,324.378996 C588.095233,323.848538 587.585149,323.487782 587.011296,323.466542 C586.54376,323.487782 585.92736,323.806057 585.736112,324.357756 C583.993336,329.301965 543.441789,445.779217 590.135572,488.873189 C596.575426,494.814974 602.250289,500.522631 607.265714,505.5518 C623.949702,522.293968 635.490403,533.858688 653.811015,533.858688 C670.303483,533.858688 692.301058,524.479359 728.498303,501.074003 C728.540851,501.052817 728.540851,500.989151 728.562071,500.967911 C735.363201,508.500801 754.533682,528.95646 776.3615,545.592699 C783.630004,551.173241 790.899051,553.380361 798.209994,553.380361 C812.36505,553.380361 826.711081,545.083698 841.588689,536.468163 C848.708656,532.330316 856.083801,528.065024 863.543824,524.691053 C894.531405,510.622634 903.649271,466.0826 904.031767,464.170451 C904.116808,463.76727 903.989274,463.364089 903.734258,463.045814 C903.457915,462.727539 903.096639,462.536541 902.671595,462.578967 L809.00638,467.183661 C807.476125,467.226141 805.988365,466.695628 804.883208,465.592177 C803.778052,464.48878 803.225419,463.024574 803.289187,461.47557 C803.437995,458.653358 805.648308,456.44651 808.453801,456.297992 L808.455216,456.304402 Z M771.010627,176.962877 C773.277323,173.530004 777.676332,168.6049 780.88566,165.427537 C783.892984,162.39979 787.259503,159.649223 790.872727,157.261151 C791.276679,156.983971 791.680632,156.728079 792.084642,156.472242 C791.703096,156.749422 791.321607,157.026602 790.940062,157.303782 C787.483915,159.883772 784.319745,162.783519 781.514312,165.939048 C778.776328,169.009426 776.307628,172.442244 774.198238,176.152352 C773.659616,177.111838 772.986323,178.241901 772.245753,179.478622 C771.572461,180.587342 770.899169,181.76009 770.225934,182.932783 L771.010627,176.962877 Z M744.846655,369.047708 C744.846655,369.132606 744.804077,369.196212 744.825339,369.28111 L732.260809,467.095987 C733.602418,450.758382 735.369967,428.967848 737.43567,404.163781 C738.053239,403.803059 738.287498,403.018009 737.946767,402.381517 C737.840295,402.169353 737.733824,402.020794 737.627352,401.829868 C737.797718,399.792964 737.968083,397.713637 738.138449,395.634419 C738.181027,395.613181 738.223659,395.634419 738.244921,395.613181 C738.862489,395.210037 739.054171,394.403749 738.649546,393.788441 C738.521758,393.597515 738.436602,393.448956 738.330131,393.279214 C740.843036,362.916842 743.696674,328.842415 746.550202,294.997207 C746.571463,294.997207 746.592779,294.997207 746.592779,294.976023 C747.252926,294.657723 747.529817,293.851489 747.189086,293.193759 C747.061298,292.91788 746.890933,292.642111 746.763145,292.38747 C746.954827,290.159586 747.146508,287.952939 747.338136,285.724891 C747.508501,285.703653 747.657605,285.767313 747.806655,285.682415 C748.466801,285.342931 748.722376,284.557881 748.381645,283.90015 C748.06223,283.284842 747.827971,282.839276 747.615027,282.414894 C755.132375,194.19248 762.522152,111.249722 764.247069,105.758227 C766.994235,96.9740082 777.493061,80.5940358 782.880975,72.4887848 L744.846655,369.047708 Z M758.425055,274.239634 C763.78871,266.259146 768.019753,262.472111 774.964545,256.267377 L775.840699,255.475737 C779.217033,252.416148 782.935382,249.377811 787.508167,245.869026 C791.140903,243.06616 795.158106,240.22079 799.774108,237.096514 C801.526362,235.898345 803.300005,234.764371 805.095038,233.60898 L806.825957,232.517784 C808.706439,231.341032 810.586921,230.164225 812.489012,229.030251 C816.784224,226.462746 821.164667,223.93802 825.545438,221.56299 C829.9261,219.166652 834.413655,216.834509 838.879766,214.630865 C844.136582,212.041944 848.474465,210.030774 852.51333,208.276052 C852.705618,208.190441 852.940685,208.276052 853.026189,208.468635 C853.111638,208.661164 853.026189,208.875109 852.812511,208.982136 C848.81648,210.800778 844.542766,212.89756 839.371509,215.571927 C834.969458,217.861292 830.545962,220.257629 826.208408,222.739578 C821.849135,225.242887 817.511417,227.831808 813.36533,230.441817 C811.570352,231.554375 809.818043,232.709765 808.0444,233.843739 L805.971575,235.234491 C804.262046,236.389882 802.552517,237.545273 800.885712,238.722025 C796.355487,241.888586 792.423406,244.81995 788.897673,247.644068 C784.431507,251.195796 780.841277,254.297944 777.57211,257.357588 C772.422133,262.128846 767.998747,267.734413 763.725197,273.147671 C761.951554,275.394257 760.1993,277.598011 758.447046,279.694738 L757.570892,280.72174 L758.425055,274.239634 Z M745.980883,369.171522 C747.982056,367.059635 751.026352,363.881157 754.837077,360.510888 C758.626493,357.1404 762.884496,353.833697 768.227643,350.101089 L776.828233,344.426541 C778.701659,343.274594 780.575085,342.101348 782.512547,340.99205 C784.428537,339.840103 786.387146,338.77351 788.324391,337.685566 L791.538999,335.957644 C793.476298,334.933702 795.392288,333.909761 797.350842,332.949823 C802.353747,330.411321 807.484508,328.000772 812.593851,325.739636 C817.703194,323.478446 822.940066,321.281204 828.134973,319.233375 C833.350753,317.185492 838.651772,315.22291 843.931153,313.388444 C850.126129,311.25526 855.214217,309.612639 859.961682,308.33274 C855.256836,309.804649 850.232403,311.575221 844.079937,313.857655 C838.821592,315.820237 833.563139,317.91077 828.453796,320.065198 C823.301889,322.241087 818.128836,324.52363 813.104513,326.891475 C808.059043,329.259319 803.013356,331.776522 798.095852,334.421677 C796.158553,335.445619 794.242563,336.512211 792.326519,337.578803 L789.218349,339.349375 C787.302359,340.458618 785.407624,341.567915 783.555289,342.741161 C781.681864,343.850404 779.872312,345.045057 778.041559,346.2396 L769.611007,352.063234 C764.416536,355.881689 760.307916,359.230824 756.667339,362.601367 C753.154673,365.843848 749.343675,369.896745 745.426785,374.547351 L744.915851,375.059322 L745.618406,369.534406 L745.980883,369.171522 Z M726.233163,475.149195 C722.781234,471.819674 718.926709,468.404699 714.543487,464.819363 C712.319836,462.96255 709.990358,461.191082 707.682132,459.419613 L702.536007,455.577917 C701.646568,454.916307 700.757129,454.297315 699.846492,453.657068 L698.406454,452.632609 C692.70962,448.641477 687.055074,444.863652 681.570219,441.427478 C675.513403,437.60709 669.837713,434.171025 664.24714,430.947938 C653.192313,424.523619 641.544924,418.185082 628.647896,411.611056 C622.696798,408.580349 616.576552,405.549532 610.477449,402.625861 C603.382973,399.232358 597.538134,396.52172 592.137853,394.131314 C592.116655,394.10995 591.926092,393.68312 591.904895,393.661756 C591.968434,393.491013 592.180195,393.426977 592.32847,393.491013 C597.813326,395.817383 603.700993,398.421205 610.880044,401.729308 C617.063721,404.567909 623.226255,407.513271 629.198496,410.437489 C642.201242,416.81919 653.976034,422.987257 665.157723,429.261868 C670.791125,432.399283 676.530246,435.750113 682.692779,439.527774 C688.283352,442.899968 694.022473,446.613757 699.782737,450.519271 L701.265171,451.543731 C702.175808,452.162668 703.086444,452.781606 703.975883,453.421907 L709.143152,457.135587 C711.493827,458.885692 713.92924,460.699833 716.258772,462.5567 L717.614128,463.623832 C721.087201,466.377088 723.522397,468.3193 726.508518,471.115228 C726.444978,472.54521 726.339098,473.868484 726.233163,475.149031 L726.233163,475.149195 Z M735.179409,450.882466 C735.39241,450.733973 735.690645,450.521903 736.095381,450.2462 C738.651564,448.443489 744.594723,444.244043 749.02544,441.550538 C754.925791,438.072327 761.039362,434.848537 767.195468,431.964461 C773.564794,429.058885 779.933575,426.429229 786.154029,424.138582 C792.608424,421.805641 799.169157,419.663596 805.623553,417.775916 C812.099216,415.909574 818.766831,414.19167 825.455169,412.664663 C831.675077,411.243691 838.236355,409.928755 845.500004,408.656276 C852.16762,407.489832 858.984107,406.493002 865.714979,405.665893 C869.101901,405.262926 872.488932,404.881188 875.875908,404.584256 C879.07115,404.287325 882.500443,403.990393 886.079372,403.82078 C886.249784,403.82078 886.420196,403.969218 886.420196,404.138886 C886.441518,404.308553 886.292374,404.478221 886.079372,404.478221 C883.182365,404.669117 880.05087,404.965994 875.939711,405.411419 C872.574056,405.771983 869.187025,406.196124 865.821317,406.662724 C859.132434,407.574693 852.358481,408.677505 845.691411,409.950038 C838.470297,411.328606 831.952099,412.728349 825.774726,414.234128 C819.192725,415.845942 812.588912,417.648706 806.134517,419.621084 C799.786458,421.572287 793.332063,423.799139 786.89948,426.238387 C780.807176,428.592503 774.544733,431.286008 768.260476,434.276554 C762.27451,437.18213 756.289089,440.469281 750.495074,443.99022 C745.808712,446.9382 739.844449,451.582636 735.05164,455.421736 C734.881228,455.400508 734.732138,455.549001 734.561726,455.591404 L735.179409,450.882466 Z M734.24638,395.767571 C733.025729,393.909597 731.868168,392.347223 730.331848,390.341476 L728.606094,388.082341 C724.944087,383.268525 720.924224,378.433306 716.67328,373.725537 C712.611393,369.228401 708.275916,364.66781 703.772286,360.170837 C699.352651,355.779261 694.806512,351.429844 690.239846,347.207445 C685.672856,343.00591 680.958349,338.804267 676.244058,334.729425 C671.719201,330.802356 666.878513,326.748378 661.890523,322.652456 C657.049943,318.68312 652.104193,314.735188 647.242278,310.934381 C641.538793,306.479458 636.782478,302.890095 632.278848,299.596278 C632.173625,299.511798 632.131547,299.342891 632.215703,299.237331 C632.299914,299.131771 632.447216,299.089558 632.573505,299.173984 C637.098362,302.362079 641.918038,305.888095 647.747596,310.258592 C652.735477,314.016754 657.744587,317.880746 662.626976,321.723172 C667.720081,325.7558 672.623967,329.746378 677.211646,333.567725 C682.094305,337.6637 686.892915,341.780647 691.459581,345.834409 C696.152806,350.014865 700.804114,354.321906 705.286732,358.608084 C709.874734,363.020794 714.315542,367.538793 718.503449,372.036307 C722.881005,376.744562 727.026888,381.558324 730.815561,386.350952 L731.299598,386.942153 C733.193719,389.349061 733.193719,389.349061 733.488376,389.919128 C733.656743,390.235862 733.930334,390.742528 734.561726,391.755968 C734.456503,393.128356 734.35128,394.437343 734.246057,395.767517 L734.24638,395.767571 Z M743.314442,287.62449 C741.810686,284.940437 740.178079,282.192527 738.266158,279.274419 C735.516459,275.141865 732.508838,270.988153 729.071714,266.557358 C726.171661,262.850815 722.863443,258.888949 719.018263,254.457609 C712.380489,246.916806 705.033292,239.247851 697.214247,231.643245 C693.476361,228.021936 689.609678,224.379469 685.699606,220.821745 C681.209842,216.731782 677.42906,213.429817 673.798357,210.40488 C673.540545,210.191875 673.519098,209.829722 673.733904,209.595394 C673.927263,209.361067 674.313926,209.318477 674.550235,209.531482 C678.223668,212.492452 682.069013,215.751499 686.644513,219.798927 C690.618708,223.292465 694.549898,226.871293 698.37363,230.471007 C706.364806,237.990542 713.862137,245.57388 720.650594,253.029612 C724.603287,257.417816 727.997241,261.358414 730.983415,265.08628 C734.549445,269.517074 737.664084,273.692109 740.500124,277.824609 C741.638665,279.507438 742.218686,280.253011 742.626852,280.764257 C743.013514,281.275502 743.249824,281.59501 743.765392,282.510999 C743.593536,284.21515 743.443182,285.919302 743.314277,287.623454 L743.314442,287.62449 Z M753.697069,165.675669 C752.39383,163.826751 750.820923,161.641679 749.517684,159.923617 C751.045608,161.604434 752.663497,163.509386 753.786977,164.928873 C753.764486,165.171654 753.71956,165.433128 753.697126,165.675908 L753.697069,165.675669 Z M727.446569,498.330057 C653.125417,546.130354 641.302961,534.307336 609.800041,502.821903 C604.751612,497.779126 599.042587,492.058222 592.545689,486.083521 C551.476832,448.326563 581.127858,348.320985 587.64635,328.191968 C602.386794,363.533553 658.793762,389.533669 682.951272,399.275441 C685.571353,400.334831 688.510771,400.165326 691.003411,398.809289 C693.49567,397.47446 695.221105,395.101395 695.753607,392.346958 C696.626985,387.791541 694.092083,383.341786 689.725136,381.774207 C647.825216,366.688564 619.941015,337.109594 607.055192,320.839317 C601.197404,313.444574 599.897916,303.465225 603.646965,294.820216 C612.146264,275.263447 624.820504,247.274296 628.590821,238.967754 C641.179992,260.748967 678.968772,301.025443 695.053966,317.786063 C696.502435,319.290397 698.504782,320.053195 700.613465,319.862482 C702.70099,319.692977 704.554248,318.59117 705.725805,316.853761 C707.621652,314.056961 707.195596,310.370275 704.724659,308.081827 C686.256433,290.898123 659.352711,251.681525 644.952544,229.833053 C638.775202,220.467717 638.434379,208.581237 644.036577,198.835126 C655.51821,178.918193 675.328459,148.386201 681.697208,138.616224 C685.148024,152.19775 706.51346,187.475873 720.018217,208.918619 C721.424097,211.143388 723.724677,212.605359 726.344976,212.944368 C728.965057,213.283378 731.563816,212.435854 733.480984,210.613666 C736.292744,207.965162 737.017033,203.727709 735.249009,200.295307 C729.32742,188.853607 718.399827,163.173516 710.262618,143.661767 C704.511168,129.847002 708.920649,114.019878 720.976992,105.205635 C741.468886,90.204609 769.778434,74.779414 780.580058,69.0374098 C775.275985,76.9403949 764.135501,94.1664074 761.174434,103.61636 C760.279788,106.455576 758.00053,128.300577 755.018359,160.358383 C753.56989,158.345535 751.950955,156.163129 750.758076,154.700995 C749.820786,153.556825 748.862229,152.455072 747.839761,151.395627 C746.966383,150.463325 745.901326,149.38278 744.580624,148.259818 C743.664656,147.475866 742.280098,147.539437 741.449309,148.408169 C741.023254,148.853112 740.788986,149.425197 740.810253,150.039644 C740.831575,150.654092 741.065843,151.226177 741.555809,151.67112 C742.365277,152.455072 743.281245,153.429737 744.261069,154.595062 C745.134447,155.633298 745.965182,156.713843 746.77465,157.794442 C748.329673,159.913223 752.653704,167.244394 754.187679,169.893006 C751.397186,200.255765 748.095406,238.096256 744.750981,277.188098 C744.410158,276.721946 743.984157,276.128707 743.366368,275.217613 C740.490698,271.043568 737.380432,266.869305 733.802067,262.398722 C730.798574,258.669619 727.411506,254.707278 723.449783,250.300157 C716.675864,242.820798 709.199033,235.214514 701.211241,227.713458 C697.398281,224.132652 693.478656,220.5308 689.516934,217.034394 C684.93715,212.98749 681.102704,209.724268 677.439269,206.758343 C676.075979,205.656536 674.052365,205.847249 672.902075,207.182078 C671.751784,208.538115 671.922196,210.593379 673.306808,211.737495 C676.842857,214.703854 680.570421,217.966588 685.001115,222.013546 C688.856665,225.530781 692.669353,229.132741 696.3546,232.713764 C704.065917,240.214278 711.286995,247.799408 717.826427,255.236458 C721.618066,259.601217 724.856099,263.499607 727.710284,267.165247 C731.075922,271.508797 734.015231,275.598171 736.720545,279.645129 C739.425804,283.797966 741.619884,287.612119 743.536998,291.340679 C740.725238,324.415512 737.934964,357.786504 735.442323,387.744079 C735.122823,387.320345 734.6755,386.74826 733.84471,385.710024 L733.354798,385.137939 C729.477927,380.264666 725.238857,375.370131 720.74436,370.602846 C716.462755,366.068583 711.925506,361.491903 707.26027,357.02132 C702.701754,352.698978 697.973044,348.355157 693.201527,344.117812 C688.557832,340.028491 683.67976,335.875817 678.716836,331.744243 C674.051819,327.887998 669.067465,323.883566 663.890778,319.815454 C658.948849,315.938056 653.85805,312.039394 648.78819,308.246829 C642.866655,303.839708 637.966934,300.279839 633.366155,297.080676 C632.066776,296.169582 630.256162,296.466229 629.318873,297.737486 C628.360316,299.029953 628.658549,300.852141 629.979196,301.805598 C634.495069,305.089758 639.287745,308.670401 645.039141,313.119831 C649.959747,316.912504 654.922998,320.874736 659.822173,324.837077 C664.870602,328.947552 669.727298,332.994455 674.285542,336.914487 C679.035737,341.003808 683.786042,345.19879 688.386875,349.39437 C692.987981,353.589623 697.567819,357.954219 702.019781,362.319032 C706.535654,366.789724 710.902492,371.345358 714.992364,375.815942 C719.231325,380.498501 723.257123,385.287048 726.921157,390.054333 L728.66786,392.321465 C730.989707,395.308977 732.395587,397.194737 734.376776,400.626922 C732.225339,426.709485 730.350815,449.550034 728.966202,466.416425 C726.559122,464.276435 724.343774,462.517818 721.383034,460.208486 L720.019744,459.149096 C717.655307,457.263336 715.184315,455.462356 712.798666,453.703793 L707.558504,449.995899 C706.642536,449.360243 705.705301,448.724587 704.789333,448.110139 L703.298221,447.093111 C697.461701,443.173296 691.625181,439.486827 685.980013,436.096734 C679.760135,432.346423 673.944883,428.998692 668.257234,425.862992 C656.946339,419.612745 645.081294,413.467726 631.959948,407.111709 C625.931477,404.187767 619.7116,401.285088 613.470456,398.445546 C606.22811,395.161386 600.284709,392.555462 594.746477,390.24586 C593.255364,389.610204 591.508661,390.309431 590.848338,391.79261 C590.528783,392.512991 590.507515,393.318152 590.805694,394.08095 C591.103928,394.82254 591.657751,395.394625 592.403307,395.733634 C597.85647,398.106699 603.69299,400.776411 610.807731,404.145404 C616.921271,407.026983 623.034812,410.035488 629.020203,413.023109 C641.950197,419.527748 653.623236,425.778538 664.700245,432.134556 C670.281012,435.333936 675.947393,438.723812 682.039666,442.495765 C687.514096,445.885858 693.180477,449.614961 698.867581,453.534993 L700.31605,454.552021 C701.210696,455.166469 702.084074,455.780916 702.957453,456.416572 L708.091114,460.188037 C710.391694,461.925447 712.69222,463.662856 714.907567,465.485044 C719.977318,469.574365 724.301731,473.430338 728.072047,477.138286 C727.21999,487.541804 726.687435,494.279682 726.538345,496.101654 C726.517078,496.461871 726.623578,496.800881 726.8579,497.076319 C726.879168,497.097527 727.156079,497.415328 727.539546,497.839063 L727.446569,498.330057 Z M803.479313,467.762098 C805.092895,469.37777 807.322115,470.270612 809.615035,470.121769 L901.441616,465.614944 C899.46714,473.905547 889.339747,510.618976 862.885866,522.648894 C855.306572,526.092754 847.875657,530.408325 840.720848,534.574851 C818.959117,547.223544 798.407246,559.149517 778.494004,543.928854 C755.437081,526.305489 735.331435,504.324561 729.959892,498.265792 L734.99163,458.9374 C740.002171,454.877051 747.326666,448.967343 752.804193,445.501769 C758.494235,442.015406 764.375049,438.783953 770.277061,435.893072 C776.476374,432.916858 782.65449,430.238113 788.66303,427.921381 C794.990069,425.497927 801.380156,423.287046 807.643603,421.35268 C814.013036,419.396873 820.552046,417.611188 827.069858,415.995516 C833.184383,414.486185 839.617407,413.083084 846.793414,411.722541 C853.396014,410.468284 860.105143,409.362871 866.708286,408.448749 C870.041545,408.002328 873.375021,407.577131 876.729585,407.215771 C880.784684,406.769295 883.863198,406.492996 886.750885,406.30165 C888.364413,406.195364 889.617048,404.792318 889.532151,403.176646 C889.489703,402.390089 889.150007,401.646036 888.555512,401.114553 C887.961017,400.583071 887.175477,400.285493 886.411189,400.349275 C882.801934,400.540567 879.31997,400.8382 876.135525,401.135832 C872.717316,401.454689 869.320411,401.837382 865.923453,402.241246 C859.17193,403.070306 852.335619,404.090713 845.62649,405.259964 C838.322758,406.5355 831.741355,407.853485 825.499648,409.299088 C818.790519,410.850978 812.103131,412.572881 805.605972,414.464906 C799.109357,416.378155 792.527954,418.525255 786.030795,420.906259 C779.767891,423.223427 773.356064,425.88073 766.944237,428.835502 C760.744923,431.747934 754.566807,435.021618 748.600661,438.57209 C744.630459,440.995543 739.534858,444.567185 736.626519,446.629224 L745.331428,378.493245 L748.324991,375.580813 C752.252745,370.925199 755.967876,366.950074 759.386575,363.824636 C762.93213,360.529564 766.965869,357.255935 772.061306,353.514443 L780.341189,347.79581 C782.124619,346.626614 783.907995,345.457364 785.776322,344.35195 C787.623398,343.203978 789.491725,342.098565 791.381032,341.014375 L794.438294,339.271194 C796.327873,338.208283 798.217397,337.166597 800.149533,336.14619 C805.011423,333.552669 810.021909,331.044155 815.011362,328.705654 C820.000651,326.367208 825.117449,324.092544 830.234084,321.94539 C835.30827,319.819569 840.530944,317.757476 845.73291,315.801723 C851.805042,313.548338 856.794494,311.805102 861.464904,310.338328 C862.866136,309.891852 863.651676,308.403799 863.24828,307.000753 C862.823633,305.555204 861.316253,304.747368 859.89377,305.151286 C855.116777,306.554332 849.979,308.191228 843.779686,310.338328 C838.49315,312.187795 833.164327,314.143602 827.941164,316.205532 C822.69713,318.267625 817.452987,320.457228 812.336352,322.731783 C807.198466,324.985169 802.039492,327.429901 797.028842,329.95953 C795.054367,330.937434 793.12234,331.957841 791.169225,332.999473 L787.920863,334.742654 C785.946387,335.826844 783.993109,336.911033 782.082442,338.05895 C780.150415,339.164418 778.260891,340.333614 776.350007,341.50281 L767.645097,347.221443 C762.231215,351.005439 757.9211,354.364292 754.057263,357.786874 C751.339697,360.189102 749.046723,362.442487 747.199755,364.334349 L757.242252,285.743961 L760.745358,281.641054 C762.507537,279.536457 764.248465,277.325575 766.031895,275.072353 C770.214394,269.778972 774.545488,264.294134 779.513744,259.68135 C782.698406,256.683911 786.222873,253.66503 790.596525,250.178776 C794.057183,247.393908 797.921454,244.523816 802.379894,241.398922 C804.035925,240.229726 805.713153,239.102979 807.390435,237.976286 L809.42861,236.637022 C811.169538,235.510329 812.889268,234.383637 814.672644,233.278169 C818.770246,230.705872 823.037858,228.13363 827.326179,225.689062 C831.593628,223.24433 835.966954,220.86338 840.319409,218.609886 C845.414846,215.973807 849.618379,213.911768 853.588744,212.104859 C855.074927,211.424588 855.754318,209.638903 855.117375,208.150795 C854.459235,206.620185 852.675804,205.89741 851.125922,206.556403 C847.049571,208.299584 842.697117,210.319174 837.4533,212.912858 C832.994805,215.12374 828.494026,217.440907 824.099177,219.842918 C819.725579,222.223868 815.330676,224.753607 811.042356,227.325903 C809.13158,228.473875 807.263253,229.643071 805.373511,230.812267 L803.632584,231.91768 C801.849208,233.065652 800.065777,234.213623 798.303598,235.404044 C793.675256,238.507768 789.641083,241.399139 785.98976,244.205123 C781.382615,247.712765 777.667483,250.795047 774.248784,253.877493 L773.378293,254.642825 C767.603464,259.787364 763.675493,263.337781 759.40837,268.928524 L769.238352,191.970786 C769.386949,191.821943 769.556797,191.651875 769.620496,191.418079 C770.406036,188.760776 772.69901,184.742713 774.524835,181.490471 C775.246675,180.236214 775.90487,179.088243 776.393162,178.131618 C778.303938,174.602697 780.533212,171.328904 782.995762,168.416255 C785.52223,165.397537 788.388447,162.633948 791.509355,160.189325 C793.122938,158.913789 794.757717,157.765872 796.371245,156.745465 C797.199234,156.213982 798.069724,155.703779 798.918964,155.236133 C799.768204,154.768433 800.659892,154.300787 801.530383,153.918094 C802.655618,153.40789 803.207611,152.11113 802.761767,150.963158 C802.54947,150.367894 802.103626,149.921472 801.530383,149.645119 C800.957139,149.38999 800.320196,149.368711 799.747007,149.581337 C798.664219,149.985255 797.68758,150.431676 796.668493,150.899376 C795.691854,151.367022 794.715214,151.87728 793.781078,152.387483 C791.934002,153.40789 790.086872,154.555862 788.282353,155.831343 C784.715547,158.318579 781.403649,161.167229 778.431174,164.313511 C776.775143,166.035468 774.100025,169.07541 771.722045,172.115407 L785.033774,67.8869515 C792.040205,73.5843601 819.172935,96.0120903 836.285453,114.931797 C840.234403,119.311058 842.187464,125.178316 841.593187,131.045521 C841.019943,136.912725 837.983932,142.291222 833.24917,145.819926 L794.948327,174.2852 C791.976016,176.474803 791.169225,180.556214 793.0163,183.724101 C794.014137,185.446059 795.712616,186.679037 797.665894,187.104179 C799.597921,187.529322 801.657347,187.146683 803.313541,186.01999 L858.491017,148.307379 C861.251032,155.790364 873.076741,188.103253 880.125566,211.637921 C883.331425,222.352467 879.764618,233.767964 871.038566,240.762242 L799.360025,298.139049 C796.748607,300.243645 796.048018,304.006253 797.746497,306.897679 C798.723136,308.577078 800.379113,309.746328 802.289943,310.128967 C804.179521,310.511607 806.175193,310.043906 807.703825,308.87471 L887.491585,248.395866 C888.850368,256.64402 893.733292,286.57596 896.769358,306.006686 C898.31924,315.870621 893.329951,325.458093 884.34899,329.837408 L791.593002,375.054229 C788.811735,376.414771 787.240656,379.390931 787.665248,382.452316 C787.983747,384.663197 789.278831,386.555223 791.232055,387.639412 C793.185333,388.723601 795.478253,388.851166 797.516156,387.958269 L901.973987,342.65655 C904.012162,346.886967 911.209366,366.104687 906.963277,418.972112 C905.583242,436.042569 891.676964,449.584322 874.607383,450.477383 L808.793352,453.921243 C804.63205,454.133814 801.34124,457.450164 801.128726,461.617016 C801.022578,463.891681 801.871818,466.145066 803.485346,467.760683 L803.479313,467.762098 Z" id="Page-1" transform="translate(739.163559, 308.907969) rotate(17.000000) translate(-739.163559, -308.907969) "></path>
        </g>
    </g>
</svg>