<?xml version="1.0" encoding="UTF-8"?>
<svg xmlns="http://www.w3.org/2000/svg" xmlns:xlink="http://www.w3.org/1999/xlink" viewBox="0 0 1080 464">
  <defs>
    <style>
      .cls-1 {
        fill: url(#_Áåçûìÿííûé_ãðàäèåíò_1519-9);
      }

      .cls-1, .cls-2, .cls-3 {
        fill-rule: evenodd;
      }

      .cls-4 {
        fill: url(#_Áåçûìÿííûé_ãðàäèåíò_20492);
      }

      .cls-5 {
        fill: #c12026;
      }

      .cls-6 {
        fill: #474748;
      }

      .cls-7 {
        fill: url(#_Áåçûìÿííûé_ãðàäèåíò_20492-3);
      }

      .cls-8 {
        fill: url(#_Áåçûìÿííûé_ãðàäèåíò_20492-2);
      }

      .cls-2 {
        fill: url(#_Áåçûìÿííûé_ãðàäèåíò_20492-4);
      }

      .cls-9 {
        fill: url(#_Áåçûìÿííûé_ãðàäèåíò_1519);
      }

      .cls-10, .cls-3 {
        fill: #010101;
        mix-blend-mode: multiply;
        opacity: .5;
      }

      .cls-11 {
        isolation: isolate;
      }

      .cls-12 {
        fill: url(#_Áåçûìÿííûé_ãðàäèåíò_1519-8);
      }

      .cls-12, .cls-13, .cls-14, .cls-15, .cls-16, .cls-17, .cls-18 {
        opacity: .4;
      }

      .cls-13 {
        fill: url(#_Áåçûìÿííûé_ãðàäèåíò_1519-5);
      }

      .cls-14 {
        fill: url(#_Áåçûìÿííûé_ãðàäèåíò_1519-6);
      }

      .cls-15 {
        fill: url(#_Áåçûìÿííûé_ãðàäèåíò_1519-4);
      }

      .cls-16 {
        fill: url(#_Áåçûìÿííûé_ãðàäèåíò_1519-2);
      }

      .cls-17 {
        fill: url(#_Áåçûìÿííûé_ãðàäèåíò_1519-3);
      }

      .cls-18 {
        fill: url(#_Áåçûìÿííûé_ãðàäèåíò_1519-7);
      }
    </style>
    <linearGradient id="_Áåçûìÿííûé_ãðàäèåíò_20492" data-name="Áåçûìÿííûé ãðàäèåíò 20492" x1="791.9" y1="354" x2="976.06" y2="354" gradientUnits="userSpaceOnUse">
      <stop offset="0" stop-color="#c12026"></stop>
      <stop offset=".23" stop-color="#b21f24"></stop>
      <stop offset=".48" stop-color="#ef3f42"></stop>
      <stop offset=".71" stop-color="#b21f24"></stop>
      <stop offset="1" stop-color="#ef3e3f"></stop>
    </linearGradient>
    <linearGradient id="_Áåçûìÿííûé_ãðàäèåíò_20492-2" data-name="Áåçûìÿííûé ãðàäèåíò 20492" x1="686.79" y1="102.62" x2="882.05" y2="102.62" xlink:href="#_Áåçûìÿííûé_ãðàäèåíò_20492"></linearGradient>
    <linearGradient id="_Áåçûìÿííûé_ãðàäèåíò_20492-3" data-name="Áåçûìÿííûé ãðàäèåíò 20492" x1="818.47" y1="200.77" x2="983.77" y2="200.77" xlink:href="#_Áåçûìÿííûé_ãðàäèåíò_20492"></linearGradient>
    <linearGradient id="_Áåçûìÿííûé_ãðàäèåíò_1519" data-name="Áåçûìÿííûé ãðàäèåíò 1519" x1="545.65" y1="204.67" x2="452.85" y2="94.07" gradientUnits="userSpaceOnUse">
      <stop offset="0" stop-color="#5e5f5f"></stop>
      <stop offset=".3" stop-color="#9e9e9e"></stop>
      <stop offset=".59" stop-color="#f0efef"></stop>
      <stop offset=".81" stop-color="#9f9f9f"></stop>
      <stop offset=".88" stop-color="#9e9e9e"></stop>
      <stop offset="1" stop-color="#656565"></stop>
    </linearGradient>
    <linearGradient id="_Áåçûìÿííûé_ãðàäèåíò_20492-4" data-name="Áåçûìÿííûé ãðàäèåíò 20492" x1="508.41" y1="187.98" x2="893.65" y2="187.98" xlink:href="#_Áåçûìÿííûé_ãðàäèåíò_20492"></linearGradient>
    <linearGradient id="_Áåçûìÿííûé_ãðàäèåíò_1519-2" data-name="Áåçûìÿííûé ãðàäèåíò 1519" x1="344.08" y1="180.29" x2="568.6" y2="180.29" xlink:href="#_Áåçûìÿííûé_ãðàäèåíò_1519"></linearGradient>
    <linearGradient id="_Áåçûìÿííûé_ãðàäèåíò_1519-3" data-name="Áåçûìÿííûé ãðàäèåíò 1519" x1="583.88" y1="155.12" x2="889.13" y2="155.12" xlink:href="#_Áåçûìÿííûé_ãðàäèåíò_1519"></linearGradient>
    <linearGradient id="_Áåçûìÿííûé_ãðàäèåíò_1519-4" data-name="Áåçûìÿííûé ãðàäèåíò 1519" x1="180" y1="223.7" x2="658" y2="223.7" xlink:href="#_Áåçûìÿííûé_ãðàäèåíò_1519"></linearGradient>
    <linearGradient id="_Áåçûìÿííûé_ãðàäèåíò_1519-5" data-name="Áåçûìÿííûé ãðàäèåíò 1519" x1="486.42" y1="142.41" x2="802.05" y2="142.41" xlink:href="#_Áåçûìÿííûé_ãðàäèåíò_1519"></linearGradient>
    <linearGradient id="_Áåçûìÿííûé_ãðàäèåíò_1519-6" data-name="Áåçûìÿííûé ãðàäèåíò 1519" x1="512.76" y1="170.81" x2="840.15" y2="170.81" xlink:href="#_Áåçûìÿííûé_ãðàäèåíò_1519"></linearGradient>
    <linearGradient id="_Áåçûìÿííûé_ãðàäèåíò_1519-7" data-name="Áåçûìÿííûé ãðàäèåíò 1519" x1="470.48" y1="163.54" x2="694.53" y2="163.54" xlink:href="#_Áåçûìÿííûé_ãðàäèåíò_1519"></linearGradient>
    <linearGradient id="_Áåçûìÿííûé_ãðàäèåíò_1519-8" data-name="Áåçûìÿííûé ãðàäèåíò 1519" x1="326.6" y1="162.94" x2="751.97" y2="162.94" xlink:href="#_Áåçûìÿííûé_ãðàäèåíò_1519"></linearGradient>
    <linearGradient id="_Áåçûìÿííûé_ãðàäèåíò_1519-9" data-name="Áåçûìÿííûé ãðàäèåíò 1519" x1="962.98" y1="410.38" x2="962.98" y2="98" xlink:href="#_Áåçûìÿííûé_ãðàäèåíò_1519"></linearGradient>
  </defs>
  <g class="cls-11">
    <g id="Layer_1" data-name="Layer 1">
      <g>
        <g>
          <path class="cls-4" d="m791.9,410.13h109.19c36.41-33.37,62.77-72.49,74.97-112.26l-102.85,3.76c-12.5,33.81-38.6,70.38-81.31,108.5Z"></path>
          <path class="cls-8" d="m882.05,105.84c-53.33-25.96-118.9-36.23-175.14-37.47l-20.13,35.25c43.07,5.06,81.71,16.54,113.03,33.26l82.23-31.04Z"></path>
          <path class="cls-7" d="m977.75,208.5c-12.47-40.66-40.38-70.49-75.9-91.93l-83.38,31.48c48.82,32.71,73.84,80.43,60,136.92l101.96-3.73c5.07-24.67,4.51-49.32-2.68-72.75Z"></path>
        </g>
        <path class="cls-9" d="m389.05,154.64l4.44,8.69c21.76-11.55,43.61-21.42,65.47-29.68l-5.89-12.62c-22.16,9.88-43.61,21.1-64.02,33.62Zm-85.46,66.78c27.24-20.92,54.87-38.94,82.68-54.2l-4.21-8.22c-28.67,18.22-55.14,39.06-78.48,62.42Zm163.1-90.64c23.33-8.41,46.63-15,69.8-19.84l.06-19.98c-25.84,7.25-51.31,16.19-75.95,26.77l6.09,13.06Zm198.72-61.69c-38.15,2.28-77.08,8.42-115.35,18.25l-.07,20.99c38.95-7.02,77.43-9.13,114.84-6.71,1.12.07,2.24.15,3.36.23l19.16-33.56c-7.57.11-14.91.39-21.94.81Z"></path>
        <g>
          <path class="cls-10" d="m836.15,123.13c-42.31-21.85-93.34-32.19-140.32-35.53l-9.15,16.02c43.07,5.06,81.71,16.54,113.03,33.26l36.43-13.75Z"></path>
          <path class="cls-10" d="m873.21,301.63c-12.5,33.81-38.6,70.38-81.31,108.5h59.81c29.42-31.66,55.89-69.92,67.98-110.2l-46.48,1.7Z"></path>
          <path class="cls-10" d="m315.48,212.42c23.34-17.13,46.94-32.16,70.68-45.19l-2.18-4.27c-24.4,14.53-47.42,31.04-68.5,49.45Z"></path>
          <path class="cls-10" d="m878.36,284.97l45.45-1.66c6.96-35.7,1.69-72.45-23.51-107.17-12.14-16.71-27.57-30.57-45.13-41.99l-36.8,13.89c48.82,32.71,73.84,80.43,60,136.92Z"></path>
          <path class="cls-10" d="m629.99,87.25c-26.48,1.67-53.35,5.42-80.09,11.16l-.03,9.93c38.95-7.02,77.43-9.13,114.84-6.71,1.12.07,2.24.15,3.36.23l8.71-15.25c-16.57-.55-32.37-.26-46.79.65Z"></path>
          <path class="cls-10" d="m466.58,130.79c23.33-8.41,46.63-15,69.8-19.84l.03-9.48c-24.62,5.92-49.05,13.55-72.87,22.81l3.04,6.51Z"></path>
          <path class="cls-10" d="m391.07,158.81l2.31,4.52c21.76-11.55,43.61-21.42,65.47-29.68l-2.96-6.34c-22.31,9.06-44.03,19.57-64.82,31.5Z"></path>
        </g>
        <path class="cls-2" d="m527.67,227c4.72-.12,9.1,1.43,12.58,4.11l353.4-121.72-347.37,145.37c-3.01,6.76-9.7,11.58-17.57,11.79-10.89.29-20.01-8.36-20.3-19.26-.29-10.89,8.36-20.01,19.26-20.3"></path>
        <path class="cls-3" d="m893.65,109.39l-346.34,134.09c.03.56.05,1.12.04,1.69-.26,10.44-8.71,19-19.26,19.28-8.76.23-16.37-5.32-19.16-13.17,2.09,8.94,10.26,15.52,19.78,15.27,7.87-.21,14.57-5.02,17.57-11.79h0"></path>
        <path class="cls-16" d="m412.94,187.02l3.87,7.42c13.32-6.57,26.76-12.38,40.25-17.43l-3.55-10.86c-13.68,6.14-27.23,13.09-40.56,20.87Z"></path>
        <path class="cls-17" d="m737.47,152.19c-11.97-4.58-24.58-8.34-35.89-11.3l-24.09,24.67c3.41,1.24,6.8,2.49,10.17,3.79l49.81-17.15Z"></path>
        <path class="cls-15" d="m326.6,252.97c30.17-21.68,61.95-38.96,93.91-51.62h0l-3.71-6.9c-31.13,15.36-61.57,34.87-90.21,58.53Z"></path>
        <path class="cls-13" d="m629.64,154.56l15.59-22.93h-.05c-18.21-2.07-36.98-1.52-55.93-.15l-6.04,20.49c15.88-.3,31.4.57,46.42,2.59Z"></path>
        <path class="cls-14" d="m636.25,187.05l30.73-10.59,10.51-10.91c-15.18-5.1-31.21-8.76-47.86-11l-16.47,26.35c5.62,1.03,14.4,3.21,23.08,6.14Z"></path>
        <path class="cls-18" d="m539.19,174.4c0,.07,20.04-.88,39,.72l5.02-23.14c-14.08.26-28.44,1.43-42.97,3.52l-1.03,18.54-.02.37Z"></path>
        <path class="cls-12" d="m498.87,178.93l-3.5-14.22c15.05-4.02,30.05-7.1,44.88-9.22l.34-17.35s.03,0,.04,0c-16.29,3.27-32.63,7.62-48.88,13.06l-.2.06,3.8,13.4-.96.31c-12.44,3.36-24.91,7.38-37.35,12.03l3.32,10.74h.04c13.02-3.71,25.96-6.65,38.71-8.86-.08.02-.17.03-.25.04Z"></path>
        <path class="cls-1" d="m995.77,203.15l.87,1.66-.32.17c3.18,10.82,5.17,21.97,5.9,33.14.74,11.42.22,23.34-1.55,35.43-6.98,47.55-33.1,95.31-74.36,136.83h4.42c22.13-20.03,39.53-40.43,53.76-62.71,58.06-90.87,44.75-176.31-35.6-228.53-12.04-7.83-26.3-14.82-43.14-21.14,46.29,25.87,76.52,61.13,90.02,105.15Z"></path>
      </g>
      <g>
        <g>
          <path class="cls-5" d="m522.33,294.44h-21.83c0,4.41-.93,8.26-3.23,10.52-1.54,1.51-3.7,2.3-6.6,2.07-1.24-.1-2.46-.2-3.68-.31l-.95-1.92c.05.63.14,1.24.27,1.86,1.12,5.37,4.97,9.96,7.35,15.01.65,1.35,1.36,3.32,2.71,4.16.02,0,.03.02.05.02,1.04.62,2.32.4,3.51.4,5.51,0,9.89-1.73,13.26-4.48,8.05-6.54,10.46-18.87,9.15-27.32Z"></path>
          <g>
            <path class="cls-5" d="m170.29,327.66h79.93l4.26-24.05h-79.93c-3.43,0-6.75.63-9.98,1.91-3.22,1.27-6.13,3.03-8.72,5.28-2.59,2.26-4.79,4.87-6.6,7.86-1.81,2.99-3.01,6.15-3.59,9.47l-10.27,57.72c-.59,3.43-.49,6.61.29,9.55.78,2.93,2.08,5.53,3.89,7.78s4.08,4.02,6.82,5.29c2.73,1.27,5.81,1.91,9.24,1.91h80.07l4.26-24.06h-80.08c-.29,0-.44-.14-.44-.44l10.12-57.63c.2-.39.44-.59.73-.59Z"></path>
            <path class="cls-5" d="m354.94,303.61l-7.34,41.21h-64.97l7.34-41.21h-24.05l-18.78,106.77h23.91l7.33-41.51h64.97l-7.33,41.51h24.05l18.77-106.77h-23.9Z"></path>
            <path class="cls-5" d="m503.97,319.78c-.62-3.22-2-6.17-4.13-8.84-2.76-3.38-6.24-5.56-10.46-6.56-1.77-.42-3.66-.63-5.68-.63h-69.81c-3.42,0-6.72.64-9.9,1.91-3.17,1.27-6.08,3.03-8.72,5.28-2.64,2.25-4.87,4.87-6.67,7.85-1.81,2.98-3.01,6.18-3.6,9.6l-10.12,57.49c-.58,3.43-.51,6.6.22,9.54.74,2.93,2.01,5.52,3.82,7.77,1.8,2.25,4.1,4.01,6.89,5.28,2.79,1.27,5.89,1.91,9.31,1.91h69.81c3.32,0,6.6-.64,9.83-1.91,3.22-1.27,6.16-3.03,8.8-5.28s4.86-4.84,6.67-7.77c1.81-2.94,3.01-6.11,3.59-9.54l10.12-57.49c.54-3.06.55-5.93.03-8.61Zm-104.59,66.54c-.4,0-.59-.19-.59-.58l10.26-57.35c0-.39.2-.58.59-.58h69.81c.2,0,.34.05.44.14v.44l-10.12,57.35c0,.39-.2.58-.58.58h-69.81Z"></path>
            <path class="cls-6" d="m686.24,303.75h-31.83l-36.66,35.06-24.49-35.06h-31.83l37.11,53.24-56.03,53.39h31.97l36.81-35.06,24.2,35.06h31.98l-37.11-53.39,55.88-53.24Z"></path>
            <path class="cls-6" d="m788.17,327.66l4.25-24.05h-97.68l-18.77,106.77h101.2l4.1-24.06h-76.99l3.08-17.45h58.07l4.26-24.05h-58.08l2.93-17.16h73.63Z"></path>
          </g>
        </g>
        <rect class="cls-5" x="424" y="422.29" width="17.82" height="17.82" rx="4" ry="4"></rect>
      </g>
    </g>
  </g>
</svg>
