<?xml version="1.0" encoding="UTF-8"?>
<!-- Generator: Adobe Illustrator 24.3.0, SVG Export Plug-In . SVG Version: 6.00 Build 0)  -->
<svg xmlns="http://www.w3.org/2000/svg" xmlns:xlink="http://www.w3.org/1999/xlink" version="1.1" id="autobike_logo" x="0px" y="0px" viewBox="0 0 137 52" style="enable-background:new 0 0 137 52;" xml:space="preserve">
<style type="text/css">
	.autologo_part0{fill-rule:evenodd;clip-rule:evenodd;fill:#FF2626;}
	.autologo_part1{enable-background:new    ;}
	.autologo_part2{fill:#FF2626;}
	.autologo_part3{fill:#FFFFFF;}
</style>
<g id="autobike_logo_group" transform="translate(-313 -706.184)">
	<path id="autobike_logo_path" class="autologo_part0" d="M393.6,726.4c-0.6-0.8,1.1-1.1,1.8-1.8c2.7-2.6,1.1-6.4-3.1-6.6c-4.4-0.3-9.3,2.6-13.6,4.6   c-5.1,2.4-9.3,5.5-16.4,4.8c-10.5-1-17.9-10.6-29.4-4.1c3-2.8,5.7-3.9,10-4.1c7.1-0.4,14.3,4.4,22.5,3.8   c10.6-0.7,16.1-9.4,27.6-9.7c4-0.1,9.5,2,9,7.4C401.6,724.7,397.9,725.9,393.6,726.4L393.6,726.4z M419.7,728.5   c10.3-10.1,28.7-3.6,30.2,9.9c1.7,14.8-14,25.1-27.6,16.8c9.9,2.1,18.5-3.5,18.7-12.7c0.2-9.4-9.2-16.6-19.7-12.5   c2.8,3.8,7.3,7.3,9.7,10.7c-4.9-2.1-8-6-11.8-9.2l-2.7,2.2l1.7-3.2c-6.5-5.4-14.6-17.3-23.5-20.6c-3.5-1.3-8.8-0.8-12.8,0.8   c1-1.6,4-3.4,6.9-4.1c9.3-2.1,14.1,5.2,18.9,9.9C412.1,720.9,416.2,725,419.7,728.5L419.7,728.5z M415.4,709.4   c-0.2,2.7-0.5,5.5-1,8.2c-3.3-0.2-5.8-1.1-7.2-3.3c1.5,1,3.3,1.6,5.1,1.8c0.4-1.5,0.5-3,0.5-4.6c-2.7-0.1-4.2,1-6.1,1.8   C408.5,710.3,412,708.8,415.4,709.4L415.4,709.4z"></path>
	<g class="autologo_part1">
		<path class="autologo_part2" d="M326.7,734.6c0.4,0,0.8,0.1,1.1,0.4c0.3,0.3,0.5,0.6,0.6,1l2.1,15.1h-5.2l-0.9-10.9c0-0.3,0-0.6,0-0.9    s0-0.6,0-0.9h-0.7c0,0.3-0.1,0.5-0.2,0.9c-0.1,0.3-0.2,0.6-0.3,0.9l-4.1,10.9h-5.4l6.4-15.3c0.2-0.4,0.4-0.7,0.7-0.9    c0.3-0.2,0.7-0.3,1.1-0.3H326.7z M327.5,743.9l-0.4,3.8h-8.7l0.5-3.8H327.5z"></path>
		<path class="autologo_part2" d="M338,739.2l-1.1,7.5c0,0.3,0,0.4,0.1,0.5s0.3,0.1,0.4,0.1c0.4,0,0.8-0.1,1.1-0.3c0.4-0.2,0.8-0.5,1.4-0.9    l0.9,2.1c-1.1,1.2-2.1,2-3,2.6c-0.9,0.5-1.9,0.8-2.9,0.8c-1.2,0-2.2-0.3-2.7-0.9c-0.6-0.6-0.8-1.5-0.6-2.6l1.2-8.9H338z     M345.6,739.2l-1.7,12H340l-0.1-3.2l-0.5-0.3l1.2-8.5H345.6z"></path>
		<path class="autologo_part2" d="M356.9,739.2l-0.4,3h-10l0.4-2.9l2.3-0.1H356.9z M354.5,736l-1.6,10.9c0,0.3,0,0.5,0.1,0.6    c0.1,0.1,0.3,0.2,0.7,0.2h1.4l0.3,3.3c-0.4,0.1-0.8,0.3-1.3,0.3c-0.5,0.1-1,0.1-1.5,0.2c-0.5,0-0.9,0.1-1.2,0.1    c-1.2,0-2.2-0.3-2.8-0.9s-0.9-1.5-0.8-2.5l1.8-12H354.5z"></path>
		<path class="autologo_part2" d="M364.4,738.8c1.6,0,2.9,0.2,3.9,0.6c1,0.4,1.7,1.1,2,2.1c0.4,1,0.4,2.2,0.2,3.8c-0.2,1.5-0.6,2.7-1.1,3.6    c-0.5,0.9-1.3,1.5-2.3,1.9c-1,0.4-2.3,0.6-3.9,0.6c-1.6,0-2.9-0.2-3.9-0.6c-1-0.4-1.7-1.1-2.1-2.1c-0.4-0.9-0.5-2.2-0.2-3.8    c0.2-1.5,0.6-2.8,1.1-3.6c0.5-0.9,1.3-1.5,2.3-1.9C361.5,739,362.8,738.8,364.4,738.8z M364.3,742.3c-0.4,0-0.8,0.1-1,0.2    c-0.2,0.2-0.4,0.5-0.6,0.9c-0.1,0.4-0.3,1.1-0.4,2c-0.1,0.7-0.1,1.3-0.1,1.7c0,0.4,0.1,0.6,0.3,0.8c0.2,0.1,0.5,0.2,0.9,0.2    s0.7-0.1,1-0.2c0.2-0.2,0.4-0.5,0.5-0.9s0.3-1.1,0.4-1.9c0.1-0.8,0.2-1.3,0.1-1.7c0-0.4-0.1-0.7-0.3-0.8    C365,742.3,364.7,742.3,364.3,742.3z"></path>
	</g>
	<g class="autologo_part1">
		<path class="autologo_part3" d="M380.5,734.4c1.5,0,2.7,0.1,3.5,0.4c0.9,0.3,1.5,0.7,1.9,1.4c0.4,0.7,0.5,1.6,0.3,2.7c-0.2,1.1-0.5,2-1,2.6    c-0.5,0.6-1.3,0.9-2.4,1l0,0.1c1.3,0.1,2.2,0.6,2.7,1.3s0.6,1.9,0.4,3.2c-0.1,1.1-0.5,2-0.9,2.6c-0.5,0.6-1.2,1-2.1,1.2    c-0.9,0.2-2,0.3-3.4,0.3c-1.2,0-2.3,0-3.3,0c-0.9,0-1.8,0-2.5-0.1c-0.8,0-1.5-0.1-2.3-0.1l0.7-3.5c0.4,0,1.2,0,2.4,0s2.5,0,4,0    c0.5,0,0.9-0.1,1.2-0.2c0.3-0.1,0.5-0.3,0.6-0.6c0.1-0.3,0.3-0.7,0.3-1.2c0.1-0.4,0.1-0.8,0-1c0-0.2-0.2-0.4-0.4-0.5    c-0.2-0.1-0.5-0.1-0.9-0.1h-6.7l0.4-3.1h6.4c0.4,0,0.7,0,1-0.1s0.4-0.3,0.5-0.5s0.2-0.6,0.3-1.1c0-0.3,0.1-0.6,0-0.8    c0-0.2-0.1-0.3-0.3-0.4c-0.1-0.1-0.4-0.1-0.6-0.1c-1,0-1.9,0-2.7,0c-0.8,0-1.4,0-2.1,0s-1.2,0-1.8,0.1l0-3.5    c0.7-0.1,1.4-0.1,2-0.1c0.7,0,1.4,0,2.2,0C378.6,734.4,379.5,734.4,380.5,734.4z M378.8,734.6l-2.3,16.6h-5.1l2.3-16.6H378.8z"></path>
		<path class="autologo_part3" d="M393.7,739.2l-1.7,12h-5l1.7-12H393.7z M392.9,733.7c0.5,0,0.9,0.1,1.2,0.4c0.2,0.3,0.3,0.7,0.3,1.2l-0.2,1.2    c-0.1,0.9-0.7,1.4-1.7,1.4h-2c-1.1,0-1.5-0.5-1.4-1.6l0.2-1.2c0.1-0.9,0.6-1.4,1.7-1.4H392.9z"></path>
		<path class="autologo_part3" d="M401.6,734.4l-0.9,6.5c-0.1,0.5-0.2,1-0.4,1.5c-0.2,0.5-0.4,1-0.7,1.5c0,0.6,0.1,1.2,0.1,2s0,1.4,0,2    l-0.5,3.3h-5l2.4-16.8H401.6z M408.6,739.2c-0.3,1.3-0.8,2.4-1.5,3.3c-0.7,0.9-1.5,1.7-2.4,2.3c-0.9,0.6-1.9,1.1-2.9,1.5    c-1,0.4-2,0.7-2.9,1l-0.5-3c0.8-0.3,1.5-0.7,2.2-1.2c0.7-0.5,1.3-1.1,1.8-1.8s0.8-1.4,1-2.2H408.6z M403.6,744.5    c0.6,0.2,1.1,0.6,1.5,0.9s0.6,0.8,0.8,1.2l2.2,4.5h-5.2l-2.5-5.5L403.6,744.5z"></path>
		<path class="autologo_part3" d="M416.2,738.8c1.7,0,3,0.2,3.9,0.5c0.9,0.3,1.5,0.8,1.8,1.5c0.3,0.7,0.4,1.5,0.3,2.4c-0.1,0.7-0.3,1.3-0.7,1.7    c-0.4,0.4-1,0.7-1.7,0.9c-0.7,0.2-1.6,0.3-2.7,0.4l-6.4,0.5l0.3-2.4l4.8-0.5c0.3,0,0.6-0.1,0.8-0.1c0.2-0.1,0.4-0.2,0.5-0.3    c0.1-0.1,0.2-0.4,0.3-0.7c0-0.2,0-0.3,0-0.4c0-0.1-0.2-0.2-0.3-0.2c-0.2,0-0.4-0.1-0.7,0c-0.3,0-0.6,0-0.8,0.1    c-0.2,0.1-0.4,0.2-0.6,0.4c-0.1,0.2-0.3,0.5-0.4,0.9c-0.1,0.4-0.2,0.8-0.3,1.4c-0.1,0.8-0.2,1.4-0.1,1.8c0,0.4,0.2,0.6,0.5,0.8    s0.7,0.2,1.2,0.2c0.3,0,0.8,0,1.4,0c0.6,0,1.2-0.1,1.8-0.1c0.6,0,1.2-0.1,1.7-0.1l0.3,3.1c-0.6,0.3-1.2,0.5-1.8,0.6    c-0.6,0.2-1.3,0.3-1.9,0.3c-0.7,0.1-1.3,0.1-1.9,0.1c-1.8,0-3.2-0.2-4.2-0.7c-1-0.5-1.6-1.2-1.9-2.2c-0.3-1-0.4-2.1-0.3-3.5    c0.1-1.3,0.4-2.3,0.8-3.1c0.4-0.8,0.9-1.4,1.5-1.9c0.6-0.4,1.3-0.8,2.2-0.9C414.2,738.9,415.1,738.8,416.2,738.8z"></path>
	</g>
</g>
</svg>
