<?xml version="1.0" encoding="UTF-8"?>
<svg xmlns="http://www.w3.org/2000/svg" width="50" height="50" viewBox="0 0 50 50">
  <g id="Group_a64" data-name="Group 64" transform="translate(-66.204 -556.063)">
    <path id="Path_a47" data-name="Path 47" d="M108.76,606.063H73.648a7.452,7.452,0,0,1-7.444-7.444V563.507a7.452,7.452,0,0,1,7.444-7.444H108.76a7.452,7.452,0,0,1,7.444,7.444v35.113A7.452,7.452,0,0,1,108.76,606.063ZM73.648,558.735a4.777,4.777,0,0,0-4.771,4.771v35.113a4.777,4.777,0,0,0,4.771,4.772H108.76a4.777,4.777,0,0,0,4.772-4.772V563.507a4.777,4.777,0,0,0-4.772-4.771Z" transform="translate(0)" fill="#ff2626"></path>
    <path id="Path_48" data-name="Path 48" d="M98.637,608.873A20.377,20.377,0,1,1,119.013,588.5,20.4,20.4,0,0,1,98.637,608.873Zm0-38.083A17.706,17.706,0,1,0,116.342,588.5,17.726,17.726,0,0,0,98.637,570.79Z" transform="translate(-7.433 -7.432)" fill="#ff2626"></path>
    <path id="Path_49" data-name="Path 49" d="M122.444,617.928a5.625,5.625,0,1,1,5.625-5.625A5.632,5.632,0,0,1,122.444,617.928Zm0-8.574a2.949,2.949,0,1,0,2.949,2.949A2.953,2.953,0,0,0,122.444,609.354Z" transform="translate(-31.24 -31.24)" fill="#ff2626"></path>
    <path id="Path_50" data-name="Path 50" d="M126.365,591.972l-2.033-1.74-.016.02c.013-.016,1.3-1.7,1.3-5.9a3.577,3.577,0,0,0-.861-2.69,2.428,2.428,0,0,0-1.568-.6l-.268,0-.025,0h-.01a2.42,2.42,0,0,0-1.578.618,3.607,3.607,0,0,0-.841,2.672c0,4.2,1.291,5.885,1.3,5.9l-.016-.02-2.033,1.74c-.2-.231-1.931-2.407-1.931-7.622a6.085,6.085,0,0,1,1.707-4.642,5.054,5.054,0,0,1,3.515-1.321h.06a5.055,5.055,0,0,1,3.515,1.321,6.086,6.086,0,0,1,1.706,4.642C128.3,589.565,126.563,591.74,126.365,591.972Z" transform="translate(-31.841 -13.778)" fill="#ff2626"></path>
    <path id="Path_51" data-name="Path 51" d="M142.757,629.838a6.963,6.963,0,0,1-3.47-1.056c-4.512-2.615-5.525-5.206-5.626-5.493l2.525-.886-.009-.024c.008.02.816,1.98,4.451,4.088a3.577,3.577,0,0,0,2.76.6,2.439,2.439,0,0,0,1.3-1.056l.147-.253h0a2.425,2.425,0,0,0,.262-1.684,3.608,3.608,0,0,0-1.89-2.068c-3.636-2.108-5.739-1.834-5.76-1.831l.025,0-.486-2.631c.3-.055,3.051-.464,7.563,2.152a6.085,6.085,0,0,1,3.161,3.8,5.054,5.054,0,0,1-.62,3.7l-.03.052a5.054,5.054,0,0,1-2.905,2.379A4.855,4.855,0,0,1,142.757,629.838Z" transform="translate(-41.639 -37.913)" fill="#ff2626"></path>
    <path id="Path_52" data-name="Path 52" d="M97.352,629.745a4.86,4.86,0,0,1-1.428-.212,5.056,5.056,0,0,1-2.893-2.394l-.03-.052a5.055,5.055,0,0,1-.6-3.706,6.084,6.084,0,0,1,3.18-3.788c4.526-2.592,7.275-2.169,7.574-2.112l-.5,2.629.025,0c-.021,0-2.123-.287-5.77,1.8A3.578,3.578,0,0,0,95,624a2.436,2.436,0,0,0,.26,1.659l.145.254h0a2.425,2.425,0,0,0,1.325,1.071,3.608,3.608,0,0,0,2.737-.6c3.647-2.089,4.465-4.045,4.473-4.065l-.009.024,2.52.9c-.1.286-1.129,2.871-5.654,5.463A6.98,6.98,0,0,1,97.352,629.745Z" transform="translate(-16.091 -37.872)" fill="#ff2626"></path>
  </g>
</svg>
