<?xml version="1.0" encoding="UTF-8"?>
<svg xmlns="http://www.w3.org/2000/svg" width="53" height="50" viewBox="0 0 53 50">
  <g id="Group_brak29" data-name="Group 29" transform="translate(-794.498 -793.809)">
    <path id="Path_bra16" data-name="Path 16" d="M833.407,843.809a25.019,25.019,0,0,1-21.376-11.989l2.192-1.337a22.453,22.453,0,1,0,19.183-34.108,22.574,22.574,0,0,0-19.374,11.077l-2.214-1.3a25.021,25.021,0,1,1,21.587,37.658Z" transform="translate(-10.937)" fill="#ff2626"></path>
    <path id="Path_17" data-name="Path 17" d="M799.782,850.992a2.279,2.279,0,0,1-2.024-1.192,27.747,27.747,0,0,1,.177-26.425,2.269,2.269,0,0,1,2.978-.916l10.091,5a2.074,2.074,0,0,1,1.086,1.279,2.142,2.142,0,0,1-.231,1.7,12.269,12.269,0,0,0,.121,12.814,2.081,2.081,0,0,1,.244,1.718,2.049,2.049,0,0,1-1.144,1.26L800.7,850.8A2.26,2.26,0,0,1,799.782,850.992Zm.256-26.106a25.2,25.2,0,0,0-.139,23.466l9.607-4.226a14.82,14.82,0,0,1-.091-14.59Z" transform="translate(0 -17.941)" fill="#ff2626"></path>
    <path id="Path_18" data-name="Path 18" d="M854.6,855.2a9.261,9.261,0,1,1,9.261-9.261A9.272,9.272,0,0,1,854.6,855.2Zm0-15.951a6.69,6.69,0,1,0,6.689,6.689A6.7,6.7,0,0,0,854.6,839.245Z" transform="translate(-32.132 -27.126)" fill="#ff2626"></path>
    <circle id="Ellipse_1" data-name="Ellipse 1" cx="1.378" cy="1.378" r="1.378" transform="translate(817.541 829.327)" fill="#ff2626"></circle>
    <circle id="Ellipse_2" data-name="Ellipse 2" cx="1.378" cy="1.378" r="1.378" transform="translate(812.854 831.602)" fill="#ff2626"></circle>
    <circle id="Ellipse_3" data-name="Ellipse 3" cx="1.378" cy="1.378" r="1.378" transform="translate(807.625 832.075)" fill="#ff2626"></circle>
    <path id="Path_19" data-name="Path 19" d="M890.928,882.494a1.378,1.378,0,1,0,1.864-.569A1.378,1.378,0,0,0,890.928,882.494Z" transform="translate(-60.828 -55.618)" fill="#ff2626"></path>
    <path id="Path_20" data-name="Path 20" d="M890.413,896.64a1.378,1.378,0,1,0,1.863-.569A1.378,1.378,0,0,0,890.413,896.64Z" transform="translate(-60.502 -64.563)" fill="#ff2626"></path>
    <path id="Path_21" data-name="Path 21" d="M884.88,909.786a1.378,1.378,0,1,0,1.864-.569A1.378,1.378,0,0,0,884.88,909.786Z" transform="translate(-57.006 -72.889)" fill="#ff2626"></path>
    <path id="Path_22" data-name="Path 22" d="M899.177,850.113a1.378,1.378,0,1,0,.372-1.913A1.378,1.378,0,0,0,899.177,850.113Z" transform="translate(-65.993 -34.247)" fill="#ff2626"></path>
    <path id="Path_23" data-name="Path 23" d="M911.423,857.211a1.378,1.378,0,1,0,.373-1.913A1.378,1.378,0,0,0,911.423,857.211Z" transform="translate(-73.74 -38.735)" fill="#ff2626"></path>
    <path id="Path_24" data-name="Path 24" d="M920.432,868.269a1.378,1.378,0,1,0,.372-1.913A1.378,1.378,0,0,0,920.432,868.269Z" transform="translate(-79.428 -45.727)" fill="#ff2626"></path>
    <path id="Path_25" data-name="Path 25" d="M874.461,827.626a1.378,1.378,0,1,0-1.514-1.227A1.378,1.378,0,0,0,874.461,827.626Z" transform="translate(-49.563 -19.646)" fill="#ff2626"></path>
    <path id="Path_26" data-name="Path 26" d="M886.479,820.146a1.378,1.378,0,1,0-1.514-1.227A1.377,1.377,0,0,0,886.479,820.146Z" transform="translate(-57.157 -14.917)" fill="#ff2626"></path>
    <path id="Path_27" data-name="Path 27" d="M900.472,817.386a1.378,1.378,0,1,0-1.514-1.227A1.378,1.378,0,0,0,900.472,817.386Z" transform="translate(-65.999 -13.172)" fill="#ff2626"></path>
    <path id="Path_28" data-name="Path 28" d="M843,838.886a1.378,1.378,0,1,0-1.794.76A1.378,1.378,0,0,0,843,838.886Z" transform="translate(-28.969 -27.306)" fill="#ff2626"></path>
    <path id="Path_29" data-name="Path 29" d="M842.04,824.764a1.378,1.378,0,1,0-1.794.76A1.378,1.378,0,0,0,842.04,824.764Z" transform="translate(-28.362 -18.377)" fill="#ff2626"></path>
    <path id="Path_30" data-name="Path 30" d="M846.174,811.113a1.378,1.378,0,1,0-1.794.76A1.378,1.378,0,0,0,846.174,811.113Z" transform="translate(-30.974 -9.73)" fill="#ff2626"></path>
    <path id="Path_31" data-name="Path 31" d="M838.17,871.951a1.378,1.378,0,1,0-.171,1.941A1.378,1.378,0,0,0,838.17,871.951Z" transform="translate(-26.056 -49.101)" fill="#ff2626"></path>
    <path id="Path_32" data-name="Path 32" d="M811.786,877.023h0a2.679,2.679,0,1,1,2.682-2.676A2.663,2.663,0,0,1,811.783,877.023Zm0-3.521a.842.842,0,1,0,0,1.684v0a.843.843,0,0,0,.842-.841.843.843,0,0,0-.841-.843Z" transform="translate(-9.224 -49.237)" fill="#ff2626"></path>
    <path id="Path_33" data-name="Path 33" d="M811.826,842.559h0a2.679,2.679,0,1,1,2.682-2.676A2.66,2.66,0,0,1,811.823,842.559Zm0-3.521a.842.842,0,1,0,0,1.684v0a.842.842,0,0,0,0-1.684Z" transform="translate(-9.25 -27.441)" fill="#ff2626"></path>
  </g>
</svg>
