<?xml version="1.0" encoding="UTF-8"?>
<svg xmlns="http://www.w3.org/2000/svg" width="37" height="50" viewBox="0 0 37 50">
  <g id="icon-oil" data-name="Group 6229" transform="translate(-325.885 -310.08)">
    <path id="Path_oil68" data-name="Path 68" d="M356.513,367.354H332.257a2.785,2.785,0,0,1-1.556-.526l-3.95-3a2.308,2.308,0,0,1-.865-1.758V331.443l3.869-9.974h8.907l.168,4.807,1.389.746,3.068-4.7h17.042l2.558,2.771v36.986a2.308,2.308,0,0,1-.865,1.758l-3.95,3A2.785,2.785,0,0,1,356.513,367.354Zm-24.233-2.54h24.21a.56.56,0,0,0,.117-.04L360.4,361.9V326.1l-1.145-1.24H344.615l-3.571,5.476L336.4,327.84l-.134-3.831h-4.822l-3.072,7.919V361.9l3.793,2.877A.567.567,0,0,0,332.28,364.814Z" transform="translate(0 -7.274)" fill="#ff2626"></path>
    <rect id="Rectangle_28" data-name="Rectangle 28" width="2.521" height="23.056" transform="translate(339.821 322.604) rotate(-67.654)" fill="#ff2626"></rect>
    <rect id="Rectangle_29" data-name="Rectangle 29" width="9.531" height="2.521" transform="translate(329.5 310.08)" fill="#ff2626"></rect>
    <path id="Path_69" data-name="Path 69" d="M364.144,386.511a7.761,7.761,0,0,1-7.752-7.752,7.681,7.681,0,0,1,1.555-4.656l4.848-8.568a1.48,1.48,0,0,1,2.7,0l4.851,8.571a7.681,7.681,0,0,1,1.553,4.653A7.761,7.761,0,0,1,364.144,386.511Zm0-19.7-4.69,8.29-.038.05a5.9,5.9,0,0,0-1.223,3.613,5.951,5.951,0,1,0,11.9,0,5.9,5.9,0,0,0-1.221-3.61l-.068-.1Z" transform="translate(-19.759 -34.621)" fill="#ff2626"></path>
    <path id="Path_70" data-name="Path 70" d="M369.422,408.441a4.772,4.772,0,0,1-4.767-4.766h1.8a2.969,2.969,0,0,0,2.966,2.966Z" transform="translate(-24.997 -59.524)" fill="#ff2626"></path>
  </g>
</svg>
