<?xml version="1.0" encoding="UTF-8"?>
<svg xmlns="http://www.w3.org/2000/svg" width="34" height="50" viewBox="0 0 34 50">
  <g id="Group_en128" data-name="Group 128" transform="translate(0.104)">
    <path id="Path_en91" data-name="Path 91" d="M855.693,89.691H823.739a1.9,1.9,0,0,1-1.9-1.894v-2.9a1.9,1.9,0,0,1,1.9-1.894h31.954v2.651H824.5V87.04h31.2Z" transform="translate(-821.944 -78.961)" fill="#ff2626"></path>
    <rect id="Rectangle_46" data-name="Rectangle 46" width="2.651" height="26.766" transform="translate(8.746 10.704)" fill="#ff2626"></rect>
    <rect id="Rectangle_47" data-name="Rectangle 47" width="2.651" height="26.766" transform="translate(15.581 10.704)" fill="#ff2626"></rect>
    <rect id="Rectangle_48" data-name="Rectangle 48" width="2.651" height="26.766" transform="translate(22.416 10.704)" fill="#ff2626"></rect>
    <rect id="Rectangle_45" data-name="Rectangle 45" width="2.651" height="26.766" transform="translate(1.906 10.704)" fill="#ff2626"></rect>
    <rect id="Rectangle_49" data-name="Rectangle 49" width="2.651" height="26.766" transform="translate(29.256 10.704)" fill="#ff2626"></rect>
    <path id="Path_92" data-name="Path 92" d="M856.081,176.914H824.126a1.9,1.9,0,0,1-1.9-1.894v-2.9a1.9,1.9,0,0,1,1.9-1.894h31.954v2.651H824.886v1.389h31.195Z" transform="translate(-822.185 -133.1)" fill="#ff2626"></path>
    <path id="Path_93" data-name="Path 93" d="M859.242,191.856H845.859a3.033,3.033,0,0,1-3.03-3.03v-4.482h2.651v4.482a.384.384,0,0,0,.379.379h13.383a.384.384,0,0,0,.379-.379v-4.482h2.651v4.482A3.034,3.034,0,0,1,859.242,191.856Z" transform="translate(-834.914 -141.856)" fill="#ff2626"></path>
    <rect id="Rectangle_50" data-name="Rectangle 50" width="17.755" height="2.651" transform="translate(8.092)" fill="#ff2626"></rect>
  </g>
</svg>
